<?xml version="1.0" encoding="utf-8"?>
<!-- Generator: Adobe Illustrator 20.0.0, SVG Export Plug-In . SVG Version: 6.00 Build 0)  -->
<svg version="1.1" id="Layer_1" xmlns="http://www.w3.org/2000/svg" xmlns:xlink="http://www.w3.org/1999/xlink" x="0px" y="0px"
     viewBox="0 0 180 180" style="enable-background:new 0 0 180 180;" xml:space="preserve">
<style type="text/css">
	.st0{fill:#33658A;}
	.st1{fill:#FAFBFB;}
	.st2{fill-rule:evenodd;clip-rule:evenodd;fill:#FAFBFB;}
</style>
    <path class="st0" d="M81.5,176.7L3.3,98.5c-4.7-4.7-4.7-12.3,0-17L81.5,3.3c4.7-4.7,12.3-4.7,17,0l78.3,78.3c4.7,4.7,4.7,12.3,0,17
	l-78.3,78.3C93.8,181.4,86.2,181.4,81.5,176.7z"/>
    <g id="XMLID_1_">
	<g id="XMLID_2_">
		<g>
			<g id="XMLID_31_">
				<g id="XMLID_32_">
					<path class="st1" d="M90,140l0-19.4c20.6,0,36.4-20.3,28.6-41.9c-2.9-8-9.3-14.4-17.3-17.3c-21.6-7.8-41.9,8-41.9,28.6
						c0,0,0,0,0,0L40,90c0-32.7,31.6-58.2,65.9-47.5c15,4.7,26.9,16.6,31.6,31.6C148.2,108.4,122.7,140,90,140z"/>
				</g>
                <polygon class="st2" points="90,120.7 70.7,120.7 70.7,101.4 70.7,101.4 90,101.4 90,101.4 				"/>
                <polygon class="st2" points="70.7,135.5 55.9,135.5 55.9,135.5 55.9,120.7 70.7,120.7 70.7,135.5 				"/>
                <path class="st2" d="M55.9,120.7H43.5c0,0,0,0,0,0v-12.4c0,0,0,0,0,0h12.4c0,0,0,0,0,0V120.7z"/>
			</g>
		</g>
	</g>
</g>
</svg>