<?xml version="1.0" encoding="utf-8"?>
<!-- Generator: Adobe Illustrator 20.0.0, SVG Export Plug-In . SVG Version: 6.00 Build 0)  -->
<svg version="1.1" id="Layer_1" xmlns="http://www.w3.org/2000/svg" xmlns:xlink="http://www.w3.org/1999/xlink" x="0px" y="0px"
     viewBox="0 0 180 180" style="enable-background:new 0 0 180 180;" xml:space="preserve">
<style type="text/css">
	.st0{fill:#33658A;}
	.st1{fill:none;stroke:#0C81C1;stroke-miterlimit:10;}
	.st2{fill:#FAFBFC;}
	.st3{fill:#33658A;}
	.st4{fill:#FFFFFF;}
	.st5{fill:#010101;}
</style>
    <path class="st0" d="M82.2,177.4L3.9,99.1c-4.7-4.7-4.7-12.3,0-17L82.2,3.9c4.7-4.7,12.3-4.7,17,0l78.3,78.3c4.7,4.7,4.7,12.3,0,17
	l-78.3,78.3C94.5,182,86.8,182,82.2,177.4z"/>
    <g>
	<rect x="90.3" y="86.9" class="st1" width="0.7" height="7.4"/>
        <rect x="90.3" y="86.9" class="st1" width="0.7" height="7.4"/>
        <rect x="90.3" y="86.9" class="st1" width="0.7" height="7.4"/>
        <rect x="90.3" y="86.9" class="st1" width="0.7" height="7.4"/>
        <rect x="90.3" y="86.9" class="st1" width="0.7" height="7.4"/>
        <rect x="90.3" y="86.9" class="st1" width="0.7" height="7.4"/>
        <g>
		<path id="outline_1_" class="st2" d="M92.6,78.7h10.2v10.4h5.2c2.4,0,4.8-0.4,7.1-1.2c1.1-0.4,2.4-0.9,3.5-1.6
			c-1.4-1.9-2.2-4.3-2.4-6.6c-0.3-3.2,0.3-7.3,2.5-9.8l1.1-1.2l1.3,1c3.2,2.6,5.9,6.2,6.4,10.3c3.9-1.1,8.4-0.9,11.9,1.1l1.4,0.8
			l-0.7,1.4c-2.9,5.6-8.9,7.4-14.8,7.1c-8.8,22-28.1,32.5-51.4,32.5c-12.1,0-23.1-4.5-29.4-15.2l-0.1-0.2l-0.9-1.9
			c-2.1-4.7-2.8-9.9-2.4-15l0.1-1.5h8.7V78.7h10.2V68.5h20.4V58.3h12.3V78.7z"/>
            <path class="st3" d="M58.8,81.2h0.7v7.4h-0.7V81.2z M57.5,81.2h0.7v7.4h-0.7V81.2z M56.1,81.2h0.7v7.4h-0.7V81.2z M54.8,81.2h0.7
			v7.4h-0.7V81.2z M53.4,81.2h0.7v7.4h-0.7V81.2z M52.1,81.2h0.7v7.4h-0.7V81.2z M51.4,80.4h8.9v8.9h-8.9V80.4z"/>
            <path class="st3" d="M69,70.9h0.7v7.4H69V70.9z M67.7,70.9h0.7v7.4h-0.7V70.9z M66.3,70.9h0.7v7.4h-0.7V70.9z M65,70.9h0.7v7.4H65
			V70.9z M63.7,70.9h0.7v7.4h-0.7V70.9z M62.3,70.9H63v7.4h-0.7V70.9z M61.6,70.2h8.9v8.9h-8.9V70.2z"/>
            <path class="st3" d="M69,81.2h0.7v7.4H69V81.2z M67.7,81.2h0.7v7.4h-0.7V81.2z M66.3,81.2h0.7v7.4h-0.7V81.2z M65,81.2h0.7v7.4H65
			V81.2z M63.7,81.2h0.7v7.4h-0.7V81.2z M62.3,81.2H63v7.4h-0.7V81.2z M61.6,80.4h8.9v8.9h-8.9V80.4z"/>
            <path class="st3" d="M79.2,81.2h0.7v7.4h-0.7V81.2z M77.9,81.2h0.7v7.4h-0.7V81.2z M76.6,81.2h0.7v7.4h-0.7V81.2z M75.2,81.2h0.7
			v7.4h-0.7V81.2z M73.9,81.2h0.7v7.4h-0.7V81.2z M72.6,81.2h0.7v7.4h-0.7V81.2z M71.8,80.4h8.9v8.9h-8.9V80.4z"/>
            <path class="st3" d="M79.2,70.9h0.7v7.4h-0.7V70.9z M77.9,70.9h0.7v7.4h-0.7V70.9z M76.6,70.9h0.7v7.4h-0.7V70.9z M75.2,70.9h0.7
			v7.4h-0.7V70.9z M73.9,70.9h0.7v7.4h-0.7V70.9z M72.6,70.9h0.7v7.4h-0.7V70.9z M71.8,70.2h8.9v8.9h-8.9V70.2z"/>
            <path class="st3" d="M89.5,81.2h0.7v7.4h-0.7V81.2z M88.1,81.2h0.7v7.4h-0.7V81.2z M86.8,81.2h0.7v7.4h-0.7V81.2z M85.4,81.2h0.7
			v7.4h-0.7V81.2z M84.1,81.2h0.7v7.4h-0.7V81.2z M82.8,81.2h0.7v7.4h-0.7V81.2z M82,80.4h8.9v8.9H82V80.4L82,80.4z"/>
            <path class="st3" d="M89.5,70.9h0.7v7.4h-0.7V70.9z M88.1,70.9h0.7v7.4h-0.7V70.9z M86.8,70.9h0.7v7.4h-0.7V70.9z M85.4,70.9h0.7
			v7.4h-0.7V70.9z M84.1,70.9h0.7v7.4h-0.7V70.9z M82.8,70.9h0.7v7.4h-0.7V70.9z M82,70.2h8.9v8.9H82V70.2L82,70.2z"/>
            <path class="st3" d="M89.5,60.7h0.7v7.4h-0.7V60.7z M88.1,60.7h0.7v7.4h-0.7V60.7z M86.8,60.7h0.7v7.4h-0.7V60.7z M85.4,60.7h0.7
			v7.4h-0.7V60.7z M84.1,60.7h0.7v7.4h-0.7V60.7z M82.8,60.7h0.7v7.4h-0.7V60.7z M82,60h8.9v8.9H82V60L82,60z"/>
            <path class="st3" d="M99.7,81.2h0.7v7.4h-0.7V81.2z M98.3,81.2h0.7v7.4h-0.7V81.2z M97,81.2h0.7v7.4H97V81.2z M95.6,81.2h0.7v7.4
			h-0.7V81.2z M94.3,81.2H95v7.4h-0.7V81.2z M93,81.2h0.7v7.4H93V81.2z M92.3,80.4h8.9v8.9h-8.9V80.4L92.3,80.4z"/>
            <path class="st4" d="M69.9,103.6c1.3,0,2.4,1.1,2.4,2.4c0,1.3-1.1,2.4-2.4,2.4c-1.3,0-2.4-1.1-2.4-2.4
			C67.5,104.7,68.6,103.6,69.9,103.6"/>
            <path class="st5" d="M69.9,104.3c0.2,0,0.4,0,0.6,0.1c-0.2,0.1-0.4,0.4-0.4,0.6c0,0.4,0.3,0.7,0.7,0.7c0.3,0,0.5-0.2,0.6-0.4
			c0.1,0.2,0.1,0.4,0.1,0.7c0,1-0.8,1.7-1.7,1.7s-1.7-0.8-1.7-1.7C68.2,105.1,68.9,104.3,69.9,104.3"/>
            <path class="st3" d="M76.4,121.2c-6-2.9-9.4-6.8-11.2-11c-2.2,0.6-4.9,1.1-8.1,1.2c-1.2,0.1-2.4,0.1-3.7,0.1c-1.5,0-3.1,0-4.8-0.1
			c5.5,5.5,12.4,9.8,25,9.9C74.6,121.3,75.5,121.3,76.4,121.2z"/>
	</g>
</g>
</svg>