<?xml version="1.0" encoding="utf-8"?>
<!-- Generator: Adobe Illustrator 20.0.0, SVG Export Plug-In . SVG Version: 6.00 Build 0)  -->
<svg version="1.1" id="Layer_1" xmlns="http://www.w3.org/2000/svg" xmlns:xlink="http://www.w3.org/1999/xlink" x="0px" y="0px"
     viewBox="0 0 180 180" style="enable-background:new 0 0 180 180;" xml:space="preserve">
<style type="text/css">
	.st0{fill:#33658A;}
	.st1{fill:#FAFBFC;}
</style>
    <rect class="st0" width="180" height="180"/>
    <g>
	<path id="path3962" class="st1" d="M52.7,65c0,0-0.7,15.1,21.6,37c22.4,21.9,24.9,30.9,23.7,37h16.3c0,0,1.5-25.5-23.7-43.4
		c0,0-17.3-15.4-20.2-27.7c0,0-8.5,0-14.5-4.8C55.9,63.2,52.7,61.3,52.7,65"/>
        <path id="path3966" class="st1" d="M87.3,99.8c4.5,3.2,8.1,6.6,11.1,10.1c2.2-2.3,4.6-4.8,7.3-7.4C128,80.6,127.3,65,127.3,65
		c0-3.7-3.2-1.6-3.2-1.6c-5.9,4.8-14.5,4.9-14.5,4.9c-2.8,12.2-20.2,27.9-20.2,27.9c-1.2,0.8-2.3,1.7-3.3,2.6
		C86.9,99.4,87.3,99.8,87.3,99.8"/>
        <path id="path3970" class="st1" d="M87.1,123.6c-2.9-3.7-6.7-8.1-11.8-13.3c-10.4,14.9-9.5,29.7-9.5,29.7H82
		C81.3,136.2,81.9,131.4,87.1,123.6"/>
        <path id="path3974" class="st1" d="M81.8,69.4h16.1c0,0,2.1-0.3,1.6,2.5c-0.7,4-9.4,12-9.4,12s-6.4-5.9-9.2-11.4
		C80.9,72.4,79.8,69.4,81.8,69.4"/>
        <path id="path3978" class="st1" d="M118.3,52.7c0,3.9-3.2,7-7,7c-3.9,0-7-3.2-7-7c0-3.9,3.2-7,7-7
		C115.1,45.7,118.3,48.8,118.3,52.7"/>
        <path id="path3982" class="st1" d="M76.8,52.7c0,3.9-3.2,7-7,7c-3.9,0-7-3.2-7-7c0-3.9,3.2-7,7-7C73.6,45.7,76.8,48.8,76.8,52.7"/>
        <path id="path3986" class="st1" d="M97.9,47c0,3.9-3.2,7-7,7c-3.9,0-7-3.2-7-7c0-3.9,3.2-7,7-7S97.9,43.2,97.9,47"/>
</g>
</svg>