<?xml version="1.0" encoding="utf-8"?>
<!-- Generator: Adobe Illustrator 20.0.0, SVG Export Plug-In . SVG Version: 6.00 Build 0)  -->
<svg version="1.1" id="Layer_1" xmlns="http://www.w3.org/2000/svg" xmlns:xlink="http://www.w3.org/1999/xlink" x="0px" y="0px"
     viewBox="0 0 180 180" style="enable-background:new 0 0 180 180;" xml:space="preserve">
<style type="text/css">
	.st0{fill:#F6F6F6;}
	.st1{font-family:'Geometos';}
	.st2{font-size:44.7247px;}
	.st3{fill:#33658A;}
</style>
    <circle class="st0" cx="89.7" cy="90.5" r="90"/>
    <text transform="matrix(1 0 0 1 44.7209 105.2207)" class="st0 st1 st2">ES6</text>
    <path class="st3" d="M100.4,124.8c-1-0.4-1.7-1.1-2.2-2c-0.8-1.3-1.6-2.6-2.4-3.9c-2.8-5.1-5.7-10.1-8.5-15.2
	c-0.1-0.1-0.2-0.2-0.2-0.4c-0.5,0.1-0.9,0.2-1.4,0.4c-6.3,1.6-12.5,3.2-18.8,4.9c-0.7,0.2-1.5,0.4-2.2,0.4c-1.5,0-2.6-0.7-3.4-1.9
	c-0.2-0.3-0.4-0.6-0.5-1C55,93.5,49.2,81,43.5,68.6c-1-2.2-2.1-4.5-3-6.7c-0.2-0.6-0.4-1.1-0.6-1.7c0-0.1-0.1-0.2-0.1-0.2
	c0-0.2,0-0.5,0-0.7c0-0.1,0.1-0.2,0.2-0.3c0.1-0.4,0.4-0.6,0.7-0.7c0.3-0.1,0.6-0.2,0.8-0.2c1.5-0.2,3-0.3,4.5-0.4
	c2.1-0.2,4.1-0.3,6.2-0.5c2.6-0.2,5.3-0.4,8-0.6c0.4,0,0.9-0.1,1.3-0.2c0.4,0,0.9,0,1.3,0c0.1,0,0.2,0,0.2,0.1
	c0.6,0.1,1.1,0.4,1.5,0.9c0.3,0.5,0.6,0.9,0.9,1.4C73.1,71.8,81,84.9,88.8,98c0.1,0.1,0.2,0.3,0.3,0.4c10.1-2.4,20.1-4.8,30.3-7.3
	c-0.1-0.2-0.2-0.3-0.2-0.4c-3.2-4.6-6.4-9.1-9.7-13.7c-0.1-0.2-0.2-0.4-0.3-0.6c-0.2-0.5-0.1-0.9,0.4-1.1c0.4-0.2,0.7-0.3,1.1-0.4
	c1.9-0.3,3.7-0.6,5.5-0.9c2.4-0.4,4.9-0.8,7.3-1.2c0.6-0.1,1.2-0.2,1.9-0.3c0.6-0.1,1.1,0.1,1.5,0.4c0.5,0.4,0.9,0.8,1.3,1.2
	c2.5,3.1,5,6.2,7.5,9.2c1.3,1.6,2.6,3.2,3.9,4.9c0.1,0.1,0.2,0.3,0.3,0.4c0,0.2,0,0.4,0,0.6c-0.2,0.4-0.7,0.5-1.1,0.6
	c-4.4,1.2-8.8,2.3-13.1,3.5c-0.1,0-0.3,0.1-0.4,0.1c0.1,0.2,0.2,0.2,0.2,0.4c2,2.7,4,5.3,6,8c2,2.7,4,5.4,6,8
	c0.2,0.2,0.3,0.5,0.4,0.7c0.2,0.5,0.1,0.9-0.3,1.1c-0.3,0.2-0.6,0.4-0.9,0.4c-1,0.4-2,0.7-3,1.1c-8.1,2.9-16.2,5.8-24.4,8.8
	c-2,0.7-3.9,1.4-6,2.1c-0.5,0.2-1.1,0.3-1.6,0.4C101.2,124.8,100.8,124.8,100.4,124.8z M60.9,59.2c-1.3,0.1-2.5,0.2-3.8,0.3
	c-1.3,0.1-2.6,0.2-4,0.4c-1.7,0.2-3.4,0.3-5,0.4c-1.1,0.1-2.2,0.2-3.3,0.3c-0.3,0-0.4,0.1-0.3,0.4c0,0.2,0.1,0.3,0.2,0.4
	c0.1,0.3,0.2,0.5,0.4,0.8c5.1,10.5,10.2,20.9,15.2,31.4c1.7,3.4,3.3,6.8,4.9,10.2c0.1,0.2,0.2,0.3,0.4,0.2c0.3,0,0.6-0.1,0.8-0.2
	c5.4-1.3,10.8-2.6,16.3-3.9c0.6-0.1,1.1-0.3,1.7-0.4c0.4-0.1,0.5-0.3,0.4-0.7c-0.1-0.2-0.2-0.4-0.3-0.5C76.9,85.5,69.5,72.7,62,59.8
	C61.7,59.1,61.7,59.1,60.9,59.2z M91.2,102.1c0.1,0.2,0.1,0.2,0.2,0.3c2.2,3.8,4.5,7.7,6.7,11.5c0.9,1.5,1.8,3,2.7,4.5
	c0.2,0.3,0.4,0.6,0.7,0.9c0.3,0.3,0.6,0.4,1,0.2c0.2-0.1,0.3-0.1,0.5-0.2c6.6-2.2,13.2-4.5,19.8-6.7c3-1,6-2,9-3
	c0.2,0,0.4-0.1,0.5-0.2c0.3-0.2,0.4-0.3,0.2-0.6c-0.1-0.2-0.3-0.4-0.4-0.6c-1.2-1.7-2.4-3.3-3.6-4.9c-2-2.7-3.9-5.4-5.9-8
	c-0.2-0.2-0.3-0.5-0.5-0.7c-0.2-0.2-0.4-0.4-0.7-0.2c-0.2,0.1-0.4,0.1-0.7,0.2c-3.2,0.8-6.4,1.7-9.6,2.5c-6.4,1.7-12.9,3.4-19.3,5
	C91.5,102,91.4,102.1,91.2,102.1z M122.5,90.4c0.1,0,0.2,0,0.2,0c3.8-0.9,7.6-1.9,11.4-2.8c0.2,0,0.3-0.1,0.5-0.2
	c0.4-0.2,0.4-0.4,0.2-0.7c0,0-0.1-0.1-0.1-0.2c-2.8-3.5-5.6-7.1-8.4-10.6c0-0.1-0.1-0.2-0.2-0.2c-0.3-0.3-0.6-0.4-1-0.3
	c-3.4,0.6-6.8,1.2-10.2,1.9c-0.4,0.1-0.8,0.1-1.2,0.2c-0.4,0.1-0.4,0.2-0.2,0.5c0.1,0.1,0.2,0.3,0.3,0.4c2.8,3.9,5.6,7.8,8.5,11.6
	C122.4,90.2,122.4,90.3,122.5,90.4z"/>
</svg>