<?xml version="1.0" encoding="utf-8"?>
<!-- Generator: Adobe Illustrator 20.0.0, SVG Export Plug-In . SVG Version: 6.00 Build 0)  -->
<svg version="1.1" id="Layer_1" xmlns="http://www.w3.org/2000/svg" xmlns:xlink="http://www.w3.org/1999/xlink" x="0px" y="0px"
     viewBox="0 0 180 180" style="enable-background:new 0 0 180 180;" xml:space="preserve">
<style type="text/css">
	.st0{fill:#33658A;}
	.st1{fill:#FAFBFB;}
</style>
    <path class="st0" d="M168,180H12c-6.6,0-12-5.4-12-12V12C0,5.4,5.4,0,12,0h156c6.6,0,12,5.4,12,12v156C180,174.6,174.6,180,168,180z
	"/>
    <circle class="st1" cx="90" cy="90" r="50"/>
    <path id="path236_1_" class="st0" d="M95.1,93.2l20.3,29.7h-5.8l-14.1-20.5L90,94.2l-5.6,8.2l-14.1,20.5h-5.8l20.3-29.7l2.2-3.2
	l-2.2-3.2L64.6,57.1h5.8l14.1,20.5l5.6,8.2l5.6-8.2l14.1-20.5h5.8L95.1,86.8L92.9,90L95.1,93.2z"/>
</svg>
