<?xml version="1.0" encoding="utf-8"?>
<!-- Generator: Adobe Illustrator 20.0.0, SVG Export Plug-In . SVG Version: 6.00 Build 0)  -->
<svg version="1.1" id="Layer_1" xmlns="http://www.w3.org/2000/svg" xmlns:xlink="http://www.w3.org/1999/xlink" x="0px" y="0px"
     viewBox="0 0 180 180" style="enable-background:new 0 0 180 180;" xml:space="preserve">
<style type="text/css">
	.st0{fill:#F6F6F6;}
	.st1{font-family:'Geometos';}
	.st2{font-size:44.7247px;}
	.st3{fill:#33658A;}
</style>
    <circle class="st0" cx="89.8" cy="90.2" r="90"/>
    <text transform="matrix(1 0 0 1 44.8407 104.8504)" class="st0 st1 st2">ES6</text>
    <g>
	<path class="st3" d="M109.1,109c3.7-0.4,6.5-3.6,6.4-7.4s-3.3-6.9-7.1-6.9h-0.3c-3.9,0.1-7,3.4-6.9,7.4c0.1,1.9,0.9,3.6,2,4.7
		c-4.3,8.5-10.9,14.8-20.9,20c-6.7,3.6-13.7,4.8-20.7,3.9c-5.7-0.8-10.2-3.3-13-7.5c-4.1-6.2-4.5-13-1-19.7
		c2.4-4.8,6.2-8.4,8.7-10.2c-0.5-1.7-1.3-4.5-1.7-6.5c-18.5,13.4-16.5,31.4-10.9,40c4.2,6.4,12.7,10.3,22.1,10.3
		c2.5,0,5.1-0.3,7.6-0.9C89.8,133.1,102.1,123.4,109.1,109z"/>
        <path class="st3" d="M131.5,93.2c-9.7-11.3-23.9-17.6-40.2-17.6h-2c-1.1-2.3-3.6-3.8-6.2-3.8h-0.3c-3.9,0.1-7,3.4-6.9,7.4
		c0.1,3.8,3.3,6.9,7.1,6.9h0.3c2.8-0.1,5.2-1.9,6.2-4.3h2.3c9.7,0,18.8,2.8,27.1,8.3c6.4,4.2,10.9,9.7,13.5,16.3
		c2.2,5.3,2,10.6-0.3,15c-3.6,6.7-9.5,10.4-17.4,10.4c-5.1,0-9.9-1.5-12.5-2.7c-1.4,1.3-3.9,3.3-5.7,4.6c5.5,2.5,11.1,3.9,16.4,3.9
		c12.2,0,21.3-6.7,24.7-13.5C141.3,116.8,141.1,104,131.5,93.2z"/>
        <path class="st3" d="M66.9,111.2C67,115,70.2,118,74,118h0.3c3.9-0.1,7-3.4,6.9-7.4c-0.1-3.8-3.3-6.9-7.1-6.9h-0.3
		c-0.3,0-0.6,0-0.9,0.1c-5.2-8.7-7.4-18.1-6.6-28.3c0.5-7.6,3.1-14.3,7.5-19.7c3.7-4.7,10.8-7,15.7-7.1
		c13.5-0.3,19.2,16.5,19.6,23.3c1.7,0.4,4.5,1.3,6.4,1.9c-1.5-20.6-14.3-31.3-26.5-31.3c-11.5,0-22,8.3-26.2,20.5
		c-5.9,16.3-2,31.9,5.1,44.3C67.1,108.4,66.7,109.8,66.9,111.2z"/>
</g>
</svg>