<?xml version="1.0" encoding="utf-8"?>
<!-- Generator: Adobe Illustrator 20.0.0, SVG Export Plug-In . SVG Version: 6.00 Build 0)  -->
<svg version="1.1" id="Layer_1" xmlns="http://www.w3.org/2000/svg" xmlns:xlink="http://www.w3.org/1999/xlink" x="0px" y="0px"
     viewBox="0 0 180 180" style="enable-background:new 0 0 180 180;" xml:space="preserve">
<style type="text/css">
	.st0{fill:#F6F6F6;}
	.st1{font-family:'Geometos';}
	.st2{font-size:44.7247px;}
	.st3{fill:#33658A;}
</style>
    <circle class="st0" cx="90" cy="89.5" r="90"/>
    <text transform="matrix(1 0 0 1 45.0235 104.2076)" class="st0 st1 st2">ES6</text>
    <path class="st3" d="M131.8,52.2c-1-3.9-3.7-7.1-7.9-9.3c-8.2-4.3-21.4-4.5-33.5-0.2c-7.2,2.6-20.9,8.4-31.3,17.9
	C48.8,70.3,47.2,78.8,48,82.2c1.8,9.3,11.6,15.9,19.3,21.4c2.1,1.4,4,2.7,5.5,4c-4.3,2.3-16.1,8.9-19.3,15.8
	c-2.4,5.5-1.3,9.5-0.3,11.3c1,2.1,2.6,3.7,4.2,4.2c1.6,0.5,3.4,0.6,5.2,0.6c6.9,0,13.7-3.7,17.9-10c4.2-6.3,4.5-14.7,2.6-19.8
	c2.7-0.6,5.6-0.6,8.9-0.3c6.3,0.8,9.3,3.2,10.8,5.2c1.6,2.1,1.9,4.2,1.8,5.5c-0.3,2.4-2.3,3.9-3.2,4.5c-0.8,0.5-1.4,1-1.3,1.9
	c0.3,1.3,1.6,1.1,2.1,1.1c1.4-0.3,6.6-2.9,6.9-8.7c0.2-3.5-1.3-7.1-4-10c-3.5-3.7-8.9-5.6-15-5.5c-4.5,0-7.6,0.5-10,1.3l-0.2-0.2
	c-2.3-2.4-5.3-4.7-8.1-6.9c-6.4-4.8-12.4-9.5-12.1-16.4c0.5-8.7,9-17.2,25.6-25.5c14.7-7.2,26.6-7.6,32.9-5.3c2.6,1,4.3,2.3,5,3.7
	c1.3,2.7,0.8,6.3-1.4,10.1c-3.7,6.4-13,14.5-27.4,16.1c-8.7,1-12.4-2.9-12.6-3.1c-1-1.1-1.6-1.8-2.7-1.1c-1.3,0.6-0.6,2.4-0.3,3.1
	c0.6,1.8,3.4,4.8,8.1,6.4c3.7,1.3,13.2,2.1,25-2.4C125.1,77.8,134.5,63.3,131.8,52.2z M76.2,120.8c-0.2,0.3-0.2,0.6-0.3,1
	s-0.3,0.6-0.3,1c-0.6,1.4-1.6,2.9-2.9,4.2c-3.7,4-8.7,5.2-10.3,4.2c-0.5-0.3-0.6-0.8-0.8-1.4c-0.3-1.9,0.8-5.8,4.2-9.2
	c4-4.2,9.7-7.2,11-7.9C77.1,115.5,77,118.3,76.2,120.8z"/>
</svg>