<?xml version="1.0" encoding="utf-8"?>
<!-- Generator: Adobe Illustrator 20.0.0, SVG Export Plug-In . SVG Version: 6.00 Build 0)  -->
<svg version="1.1" id="Layer_1" xmlns="http://www.w3.org/2000/svg" xmlns:xlink="http://www.w3.org/1999/xlink" x="0px" y="0px"
     viewBox="0 0 180 180" style="enable-background:new 0 0 180 180;" xml:space="preserve">
<style type="text/css">
	.st0{fill:#33658A;}
	.st1{fill:#FAFBFC;}
</style>
    <path class="st0" d="M168.9,180.5h-156c-6.6,0-12-5.4-12-12v-156c0-6.6,5.4-12,12-12h156c6.6,0,12,5.4,12,12v156
	C180.9,175.1,175.5,180.5,168.9,180.5z"/>
    <path id="circle-of-friends" class="st1" d="M117.9,57.8c4.4,2.5,10.1,1,12.6-3.4c2.5-4.4,1-10.1-3.4-12.6c-4.4-2.5-10.1-1-12.6,3.4
	C112,49.6,113.5,55.3,117.9,57.8z M99,117.5c-4.1,0-7.9-0.9-11.4-2.5l-6.4,11.5c5.4,2.7,11.4,4.2,17.8,4.2c3.7,0,7.3-0.5,10.7-1.5
	c0.6-3.7,2.8-7.1,6.3-9.1c3.5-2,7.6-2.2,11.1-0.9c6.8-6.7,11.3-15.8,11.9-26l-13.2-0.2C124.7,106.7,113.1,117.5,99,117.5L99,117.5z
	 M99,63.6c14.1,0,25.6,10.8,26.8,24.6l13.2-0.2c-0.6-10.2-5.1-19.3-11.9-26c-3.5,1.3-7.6,1.1-11.1-0.9c-3.5-2-5.7-5.4-6.3-9.1
	c-3.4-0.9-7-1.5-10.7-1.5c-6.4,0-12.4,1.5-17.8,4.2l6.4,11.5C91.1,64.5,95,63.6,99,63.6L99,63.6z M72.1,90.5
	c0-9.1,4.5-17.2,11.5-22.1l-6.7-11.3c-8.1,5.4-14.1,13.6-16.6,23.3c2.9,2.4,4.8,6,4.8,10.1c0,4.1-1.9,7.7-4.8,10.1
	c2.5,9.7,8.5,17.9,16.6,23.3l6.7-11.3C76.6,107.7,72.1,99.7,72.1,90.5L72.1,90.5z M117.9,123.2c-4.4,2.5-5.9,8.2-3.4,12.6
	c2.5,4.4,8.2,5.9,12.6,3.4c4.4-2.5,5.9-8.2,3.4-12.6C128,122.2,122.3,120.7,117.9,123.2z M52,81.3c-5.1,0-9.2,4.1-9.2,9.2
	c0,5.1,4.1,9.2,9.2,9.2c5.1,0,9.2-4.1,9.2-9.2C61.2,85.4,57.1,81.3,52,81.3"/>
</svg>
