<svg width="114" height="107" viewBox="0 0 114 107" fill="none" xmlns="http://www.w3.org/2000/svg">
    <g clip-path="url(#clip0)">
        <path d="M57.2771 107.229C88.4776 107.229 113.771 83.3451 113.771 53.8822C113.771 24.4193 88.4776 0.534912 57.2771 0.534912C26.0766 0.534912 0.783569 24.4193 0.783569 53.8822C0.783569 83.3451 26.0766 107.229 57.2771 107.229Z" fill="#F6F6F6"/>
        <path d="M50.7157 62.3731H36.9358V73.6416H52.9432V77.0702H32.7428V45.2737H52.7248V48.7242H36.9358V58.9445H50.7157V62.3731ZM42.1114 114.897C38.5154 113.864 35.8948 112.597 34.2497 111.097C32.6191 109.583 31.8038 107.72 31.8038 105.507C31.8038 103.003 32.8011 100.935 34.7956 99.3047C36.8048 97.6595 39.4108 96.837 42.6137 96.837C44.7976 96.837 46.7412 97.2592 48.4445 98.1036C50.1625 98.948 51.4873 100.113 52.4191 101.598C53.3654 103.083 53.8386 104.706 53.8386 106.468H49.6238C49.6238 104.546 49.0123 103.039 47.7894 101.947C46.5664 100.841 44.8412 100.287 42.6137 100.287C40.5464 100.287 38.9303 100.746 37.7656 101.663C36.6155 102.566 36.0404 103.825 36.0404 105.441C36.0404 106.737 36.5864 107.836 37.6783 108.739C38.7848 109.627 40.6556 110.442 43.2907 111.185C45.9404 111.927 48.0078 112.75 49.4928 113.652C50.9923 114.54 52.0988 115.581 52.8122 116.775C53.5401 117.969 53.9041 119.374 53.9041 120.99C53.9041 123.567 52.8995 125.634 50.8904 127.192C48.8813 128.735 46.1952 129.507 42.8321 129.507C40.6483 129.507 38.6101 129.092 36.7174 128.262C34.8248 127.418 33.3616 126.268 32.3279 124.812C31.3088 123.356 30.7992 121.703 30.7992 119.854H35.014C35.014 121.776 35.7201 123.298 37.1323 124.419C38.5591 125.525 40.459 126.078 42.8321 126.078C45.0451 126.078 46.7412 125.627 47.9204 124.724C49.0997 123.822 49.6893 122.592 49.6893 121.034C49.6893 119.476 49.1434 118.275 48.0514 117.43C46.9595 116.571 44.9795 115.727 42.1114 114.897ZM47.5492 149.252V152.68H46.8067C43.662 152.739 41.1578 153.67 39.2943 155.476C37.4308 157.281 36.3534 159.822 36.0623 163.097C37.7365 161.176 40.0223 160.215 42.9195 160.215C45.6856 160.215 47.8913 161.19 49.5364 163.141C51.1962 165.092 52.026 167.611 52.026 170.697C52.026 173.973 51.1306 176.593 49.3399 178.559C47.5637 180.524 45.1761 181.507 42.177 181.507C39.1342 181.507 36.6664 180.342 34.7738 178.013C32.8812 175.669 31.9348 172.655 31.9348 168.972V167.421C31.9348 161.569 33.1796 157.099 35.6692 154.013C38.1733 150.912 41.8931 149.325 46.8285 149.252H47.5492ZM42.2425 163.578C40.8594 163.578 39.5855 163.993 38.4208 164.823C37.2561 165.652 36.4481 166.693 35.9967 167.945V169.43C35.9967 172.051 36.5864 174.162 37.7656 175.763C38.9449 177.365 40.4153 178.166 42.177 178.166C43.9968 178.166 45.4236 177.496 46.4573 176.157C47.5055 174.817 48.0296 173.063 48.0296 170.894C48.0296 168.71 47.4982 166.948 46.4354 165.609C45.3872 164.255 43.9895 163.578 42.2425 163.578Z" fill="#F6F6F6"/>
        <path d="M57.277 24.1262L30.0346 39.0042V68.7601L57.277 83.6381L84.5822 68.7601V39.0042L57.277 24.1262Z" fill="#A3BDCD"/>
        <path d="M57.277 39.1228L43.7814 46.4729V61.2323L57.277 68.6416L70.8355 61.2323V46.4729L57.277 39.1228Z" fill="#33658A"/>
        <g opacity="0.0588">
            <g opacity="0.0588">
                <g opacity="0.0588">
                    <path opacity="0.0588" d="M57.2771 39.3599L29.9719 54.3564L57.2771 68.4045L84.645 54.4157L57.2771 39.3599Z" fill="#33658A"/>
                </g>
            </g>
        </g>
        <g opacity="0.0588">
            <g opacity="0.0588">
                <g opacity="0.0588">
                    <path opacity="0.0588" d="M57.3398 39.5969L29.9719 53.2894L57.3398 68.1674L84.5822 53.1708L57.3398 39.5969Z" fill="#33658A"/>
                </g>
            </g>
        </g>
    </g>
    <defs>
        <clipPath id="clip0">
            <rect width="112.987" height="106.695" fill="white" transform="translate(0.532471 0.238525)"/>
        </clipPath>
    </defs>
</svg>
