<?xml version="1.0" encoding="utf-8"?>
<!-- Generator: Adobe Illustrator 20.0.0, SVG Export Plug-In . SVG Version: 6.00 Build 0)  -->
<svg version="1.1" id="Layer_1" xmlns="http://www.w3.org/2000/svg" xmlns:xlink="http://www.w3.org/1999/xlink" x="0px" y="0px"
     viewBox="0 0 180 180" style="enable-background:new 0 0 180 180;" xml:space="preserve">
<style type="text/css">
	.st0{fill:#33658A;}
	.st1{fill:#FAFBFC;}
</style>
    <path class="st0" d="M168,180H12c-6.6,0-12-5.4-12-12V12C0,5.4,5.4,0,12,0h156c6.6,0,12,5.4,12,12v156C180,174.6,174.6,180,168,180z
	"/>
    <g id="Layer_x0020_1_1_">
	<polygon class="st1" points="80.1,131.8 41,126.5 40,126.3 40,125.4 40,93.3 40,92.2 41.1,92.2 80.2,92.2 81.3,92.2 81.3,93.3
		81.3,130.8 81.3,132 	"/>
        <polygon class="st1" points="140,93.3 140,138.9 140,140.2 138.8,140 86.6,132.7 85.7,132.5 85.7,131.6 85.7,93.3 85.7,92.2
		86.7,92.2 138.9,92.2 140,92.2 	"/>
        <polygon class="st1" points="86.6,47.6 138.8,40 140,39.8 140,41.1 140,86.7 140,87.8 138.9,87.8 86.7,87.8 85.7,87.8 85.7,86.7
		85.7,48.7 85.7,47.7 	"/>
        <polygon class="st1" points="40,86.7 40,54.9 40,54 40.9,53.9 80.1,48.6 81.3,48.4 81.3,49.6 81.3,86.7 81.3,87.8 80.2,87.8
		41.1,87.8 40,87.8 	"/>
</g>
</svg>
