<?xml version="1.0" encoding="utf-8"?>
<!-- Generator: Adobe Illustrator 20.0.0, SVG Export Plug-In . SVG Version: 6.00 Build 0)  -->
<svg version="1.1" id="Layer_1" xmlns="http://www.w3.org/2000/svg" xmlns:xlink="http://www.w3.org/1999/xlink" x="0px" y="0px"
     viewBox="0 0 180 180" style="enable-background:new 0 0 180 180;" xml:space="preserve">
<style type="text/css">
	.st0{fill:#F6F6F6;}
	.st1{fill:#FFFFFF;}
	.st2{fill:#33658A;}
</style>
    <circle class="st0" cx="90.2" cy="90.1" r="90"/>
    <g>
	<circle class="st1" cx="90.2" cy="90.1" r="50"/>
        <path class="st2" d="M47.3,90.1c0,17,9.9,31.6,24.2,38.6L51,72.6C48.7,78,47.3,83.9,47.3,90.1z"/>
        <path class="st2" d="M119.2,87.9c0-5.3-1.9-9-3.5-11.8c-2.2-3.6-4.2-6.5-4.2-10.1c0-3.9,3-7.6,7.2-7.6c0.2,0,0.4,0,0.5,0
		c-7.6-7-17.8-11.3-29-11.3c-15,0-28.2,7.7-35.8,19.3c1,0,2,0,2.8,0c4.5,0,11.4-0.5,11.4-0.5c2.3-0.2,2.6,3.3,0.3,3.5
		c0,0-2.3,0.3-4.9,0.4l15.6,46.5l9.4-28.1L82.3,70c-2.3-0.1-4.5-0.4-4.5-0.4c-2.3-0.2-2-3.7,0.3-3.5c0,0,7.1,0.5,11.3,0.5
		c4.5,0,11.4-0.5,11.4-0.5c2.3-0.2,2.6,3.3,0.3,3.5c0,0-2.3,0.3-4.9,0.4l15.5,46.1l4.3-14.3C118.1,96.2,119.2,91.6,119.2,87.9z"/>
        <path class="st2" d="M91,93.8l-12.9,37.4c3.8,1.1,7.9,1.8,12.1,1.8c5,0,9.8-0.9,14.2-2.4c-0.1-0.2-0.2-0.4-0.3-0.6L91,93.8z"/>
        <path class="st2" d="M127.9,69.5c0.2,1.4,0.3,2.8,0.3,4.4c0,4.4-0.8,9.3-3.3,15.4l-13.1,37.9c12.8-7.4,21.3-21.3,21.3-37.1
		C133.1,82.6,131.2,75.6,127.9,69.5z"/>
        <path class="st2" d="M40.2,90.1c0,27.6,22.4,50,50,50s50-22.4,50-50s-22.4-50-50-50S40.2,62.5,40.2,90.1z M42.5,90.1
		c0-26.3,21.4-47.7,47.7-47.7c26.3,0,47.7,21.4,47.7,47.7s-21.4,47.7-47.7,47.7C63.9,137.8,42.5,116.4,42.5,90.1z"/>
</g>
</svg>
